Coordinates
version=1
nRows=7
nColumns=38
inDegrees=yes

Units are S.I. units (second, meters, Newtons, ...)
Angles are in degrees.

endheader
time	pelvis_tilt	pelvis_list	pelvis_rotation	pelvis_tx	pelvis_ty	pelvis_tz	hip_flexion_r	hip_adduction_r	hip_rotation_r	knee_angle_r	ankle_angle_r	subtalar_angle_r	mtp_angle_r	hip_flexion_l	hip_adduction_l	hip_rotation_l	knee_angle_l	ankle_angle_l	subtalar_angle_l	mtp_angle_l	lumbar_extension	lumbar_bending	lumbar_rotation	arm_flex_r	arm_add_r	arm_rot_r	elbow_flex_r	pro_sup_r	wrist_flex_r	wrist_dev_r	arm_flex_l	arm_add_l	arm_rot_l	elbow_flex_l	pro_sup_l	wrist_flex_l	wrist_dev_l
      1.75000000	      3.03364931	     -1.29691254	      4.43008927	     -0.75742664	      0.91249424	      0.22289373	     -9.88752885	      6.08787080	     -6.50093269	    -11.29918940	     11.47943531	      1.12097773	      3.43459903	     25.82561735	      1.73591428	      2.96649645	    -28.24602559	      0.31292522	    -10.03779209	      8.97177272	    -10.44216906	      3.31100405	      2.11946443	      2.26360789	    -22.96984769	      7.82192936	     38.09435327	     86.51662706	      0.00000000	      0.00000000	     -2.54224679	    -14.38691150	     20.36347160	     15.03835474	     86.51662706	      0.00000000	      0.00000000
      1.76000000	      2.91956052	     -1.50668610	      4.45130170	     -0.74497427	      0.91031101	      0.22231767	    -10.85370624	      6.35837164	     -6.43104342	    -10.90593785	     11.84899674	      1.25533504	      3.57842097	     26.27572752	      1.52977911	      2.95687741	    -25.38654549	      0.85154352	     -9.25594704	      8.83834014	    -10.38817112	      3.52390197	      2.27091240	      2.65067077	    -23.25280333	      7.69179836	     38.51701395	     86.51662706	      0.00000000	      0.00000000	     -2.93879961	    -14.34531448	     20.35065778	     14.80112108	     86.51662706	      0.00000000	      0.00000000
      1.77000000	      2.89921153	     -1.70626573	      4.48609959	     -0.73231936	      0.90821817	      0.22162831	    -11.87814189	      6.60386419	     -6.41950251	    -10.61488034	     12.17008947	      1.43593343	      3.73354528	     26.58448419	      1.34108848	      2.84968729	    -22.71472294	      1.35400549	     -8.27317526	      8.66528484	    -10.41651121	      3.73530012	      2.40123008	      2.98640424	    -23.53029101	      7.54007487	     39.00700149	     86.51662706	      0.00000000	      0.00000000	     -3.27230568	    -14.28492596	     20.29963336	     14.48915720	     86.51662706	      0.00000000	      0.00000000
      1.78000000	      2.94428838	     -1.89691607	      4.52580882	     -0.71950415	      0.90619232	      0.22084011	    -12.91709075	      6.82154046	     -6.44317921	    -10.44440484	     12.44171976	      1.66057039	      3.90651147	     26.79017596	      1.16780288	      2.64345581	    -20.27017589	      1.83128567	     -7.07266559	      8.46777375	    -10.50270147	      3.94278404	      2.52278529	      3.26825567	    -23.79958577	      7.36330681	     39.54809581	     86.51662706	      0.00000000	      0.00000000	     -3.54663263	    -14.20635627	     20.22862929	     14.11330011	     86.51662706	      0.00000000	      0.00000000
      1.79000000	      3.02119320	     -2.07917363	      4.55806578	     -0.70658379	      0.90421549	      0.21996811	    -13.91885174	      7.00662040	     -6.47745589	    -10.41949488	     12.66012894	      1.92710185	      4.10904650	     26.93626039	      1.01016131	      2.34439491	    -18.11003743	      2.29189229	     -5.65406857	      8.26525160	    -10.61735957	      4.14131216	      2.64973268	      3.49260926	    -24.05627518	      7.15796813	     40.11910324	     86.51662706	      0.00000000	      0.00000000	     -3.76729161	    -14.11111445	     20.16069354	     13.68713497	     86.51662706	      0.00000000	      0.00000000
      1.80000000	      3.10002430	     -2.25103344	      4.56851341	     -0.69359796	      0.90228886	      0.21901830	    -14.83731827	      7.15151051	     -6.50322996	    -10.56545300	     12.81834636	      2.23392898	      4.35923431	     27.06086127	      0.87183820	      1.97157994	    -16.30048975	      2.73631710	     -4.04775555	      8.07705653	    -10.73277131	      4.32262955	      2.79436992	      3.65492946	    -24.29433895	      6.92159419	     40.69738616	     86.51662706	      0.00000000	      0.00000000	     -3.94172049	    -14.00197110	     20.11952902	     13.22453545	     86.51662706	      0.00000000	      0.00000000
      1.81000000	      3.16081864	     -2.40675210	      4.54335448	     -0.68054141	      0.90042566	      0.21799185	    -15.64103498	      7.24488520	     -6.51006911	    -10.90088340	     12.90676968	      2.57971938	      4.68245729	     27.19082910	      0.75971034	      1.55853599	    -14.90608463	      3.15287866	     -2.31975934	      7.91859492	    -10.82654545	      4.47545343	      2.96459824	      3.74976458	    -24.50637131	      6.65337538	     41.26145247	     86.51662706	      0.00000000	      0.00000000	     -4.07985128	    -13.88320280	     20.12655385	     12.73803816	     86.51662706	      0.00000000	      0.00000000
